<svg width="48" xmlns="http://www.w3.org/2000/svg" height="48" id="screenshot-317a3f44-3776-805e-8007-fb9796d910f0" viewBox="0 0 48 48" xmlns:xlink="http://www.w3.org/1999/xlink" fill="none" version="1.1"><g id="shape-317a3f44-3776-805e-8007-fb9796d910f0"><defs><clipPath id="frame-clip-317a3f44-3776-805e-8007-fb9796d910f0-render-1" class="frame-clip frame-clip-def"><rect rx="0" ry="0" x="0" y="0" width="48" height="48" transform="matrix(1.000000, 0.000000, 0.000000, 1.000000, 0.000000, 0.000000)"/></clipPath></defs><g class="frame-container-wrapper"><g class="frame-container-blur"><g class="frame-container-shadows"><g clip-path="url(#frame-clip-317a3f44-3776-805e-8007-fb9796d910f0-render-1)" fill="none"><g class="fills" id="fills-317a3f44-3776-805e-8007-fb9796d910f0"><rect width="48" height="48" class="frame-background" x="0" transform="matrix(1.000000, 0.000000, 0.000000, 1.000000, 0.000000, 0.000000)" style="fill: rgb(255, 255, 255); fill-opacity: 1;" ry="0" rx="0" y="0"/></g><g class="frame-children"><g id="shape-317a3f44-3776-805e-8007-fb994e617ff9" rx="0" ry="0" style="display: none;"><g id="shape-317a3f44-3776-805e-8007-fb98a251fb01"><g class="fills" id="fills-317a3f44-3776-805e-8007-fb98a251fb01"><rect rx="0" ry="0" x="0" y="0" transform="matrix(1.000000, 0.000000, 0.000000, 1.000000, 0.000000, 0.000000)" width="48" height="12" style="fill: rgb(217, 41, 41); fill-opacity: 1;"/></g></g><g id="shape-317a3f44-3776-805e-8007-fb98a8fd06e0"><g class="fills" id="fills-317a3f44-3776-805e-8007-fb98a8fd06e0"><rect rx="0" ry="0" x="0" y="12" transform="matrix(1.000000, 0.000000, 0.000000, 1.000000, 0.000000, 0.000000)" width="48" height="12" style="fill: rgb(242, 162, 12); fill-opacity: 1;"/></g></g><g id="shape-317a3f44-3776-805e-8007-fb98bc0fa780"><g class="fills" id="fills-317a3f44-3776-805e-8007-fb98bc0fa780"><rect rx="0" ry="0" x="2.2737367544323206e-13" y="24" transform="matrix(1.000000, 0.000000, 0.000000, 1.000000, 0.000000, 0.000000)" width="48" height="12" style="fill: rgb(49, 140, 7); fill-opacity: 1;"/></g></g><g id="shape-317a3f44-3776-805e-8007-fb98ce52ba35"><g class="fills" id="fills-317a3f44-3776-805e-8007-fb98ce52ba35"><rect rx="0" ry="0" x="0" y="36" transform="matrix(1.000000, 0.000000, 0.000000, 1.000000, 0.000000, 0.000000)" width="48" height="12" style="fill: rgb(15, 113, 242); fill-opacity: 1;"/></g></g></g><g id="shape-317a3f44-3776-805e-8007-fb9987f4d388"><defs><filter id="filter-render-7" x="-0.045454545454545414" y="-0.08108108108108099" width="1.0909090909090908" height="1.162162162162162" filterUnits="objectBoundingBox" color-interpolation-filters="sRGB"><feFlood flood-opacity="0" result="BackgroundImageFix"/><feBlend mode="normal" in="SourceGraphic" in2="BackgroundImageFix" result="shape"/><feGaussianBlur stdDeviation="3" result="filter_317a3f44-3776-805e-8007-fb9a8ac5d939"/></filter><filter id="filter-blur-render-7" x="-0.045454545454545414" y="-0.08108108108108099" width="1.0909090909090908" height="1.162162162162162" filterUnits="objectBoundingBox" color-interpolation-filters="sRGB"><feFlood flood-opacity="0" result="BackgroundImageFix"/><feBlend mode="normal" in="SourceGraphic" in2="BackgroundImageFix" result="shape"/><feGaussianBlur stdDeviation="3" result="filter_317a3f44-3776-805e-8007-fb9a8ac5d939"/></filter><linearGradient id="fill-color-gradient-render-7-0" x1="0.5" y1="0" x2="0.5" y2="1" gradientTransform=""><stop offset="0" stop-color="#d92929" stop-opacity="1"/><stop offset="0.175" stop-color="#d92929" stop-opacity="1"/><stop offset="0.35" stop-color="#f2a20c" stop-opacity="1"/><stop offset="0.45" stop-color="#f2a20c" stop-opacity="1"/><stop offset="0.6" stop-color="#318c07" stop-opacity="1"/><stop offset="0.7" stop-color="#318c07" stop-opacity="1"/><stop offset="0.85" stop-color="#0f71f2" stop-opacity="1"/><stop offset="1" stop-color="#0f71f2" stop-opacity="1"/></linearGradient><pattern patternUnits="userSpaceOnUse" x="-41.754256466864945" y="-19.33847167368296" width="132.0000000000001" height="74.00000000000009" id="fill-0-render-7"><g><rect width="132.0000000000001" height="74.00000000000009" style="fill: url(&quot;#fill-color-gradient-render-7-0&quot;);"/></g></pattern></defs><g class="fills" id="fills-317a3f44-3776-805e-8007-fb9987f4d388"><rect width="132.0000000000001" height="74.00000000000009" x="-41.754256466864945" transform="matrix(0.482338, -0.875985, 0.875985, 0.482338, -2.920132, 30.381626)" ry="0" fill="url(#fill-0-render-7)" rx="0" filter="url(#filter-render-7)" y="-19.33847167368296"/></g></g><g id="shape-317a3f44-3776-805e-8007-fb9784eec786" width="800" height="800" class="icon flat-line" rx="0" ry="0" style="fill: rgb(0, 0, 0);"><g id="shape-317a3f44-3776-805e-8007-fb9784efbde9" style="display: none;"><g class="fills" id="fills-317a3f44-3776-805e-8007-fb9784efbde9"><rect width="38" height="38" x="5" transform="matrix(1.000000, 0.000000, 0.000000, 1.000000, 0.000000, 0.000000)" style="fill: none;" ry="0" fill="none" rx="0" y="5"/></g></g><g id="shape-317a3f44-3776-805e-8007-fb9784f0315f"><g class="fills" id="fills-317a3f44-3776-805e-8007-fb9784f0315f"><path d="M28.75,9.75L31.9166259765625,9.75C32.79119873046875,9.75,33.5,10.458877563476562,33.5,11.333343505859375L33.5,20.833343505859375C33.5,22.582229614257812,34.91778564453125,24,36.6666259765625,24L36.6666259765625,24C34.91778564453125,24,33.5,25.417770385742188,33.5,27.166656494140625L33.5,36.666656494140625C33.5,37.541107177734375,32.79119873046875,38.25,31.9166259765625,38.25L28.75,38.25" style="fill: none; stroke-linecap: round; stroke-linejoin: round;"/></g><g id="strokes-ea9c28e3-0b22-8002-8007-fb9ac7d46c27-317a3f44-3776-805e-8007-fb9784f0315f" class="strokes" style="fill: none; stroke-linecap: round; stroke-linejoin: round;"><g class="stroke-shape"><path d="M28.75,9.75L31.9166259765625,9.75C32.79119873046875,9.75,33.5,10.458877563476562,33.5,11.333343505859375L33.5,20.833343505859375C33.5,22.582229614257812,34.91778564453125,24,36.6666259765625,24L36.6666259765625,24C34.91778564453125,24,33.5,25.417770385742188,33.5,27.166656494140625L33.5,36.666656494140625C33.5,37.541107177734375,32.79119873046875,38.25,31.9166259765625,38.25L28.75,38.25" style="fill: none; stroke-width: 2; stroke: rgb(255, 255, 255); stroke-opacity: 1;"/></g></g></g><g id="shape-317a3f44-3776-805e-8007-fb9784f09afd"><g class="fills" id="fills-317a3f44-3776-805e-8007-fb9784f09afd"><path d="M19.25,9.75L16.0833740234375,9.75C15.20880126953125,9.75,14.5,10.458877563476562,14.5,11.333343505859375L14.5,20.833343505859375C14.5,22.582229614257812,13.08221435546875,24,11.3333740234375,24L11.3333740234375,24C13.08221435546875,24,14.5,25.417770385742188,14.5,27.166656494140625L14.5,36.666656494140625C14.5,37.541107177734375,15.20880126953125,38.25,16.0833740234375,38.25L19.25,38.25" style="fill: none; stroke-linecap: round; stroke-linejoin: round;"/></g><g id="strokes-ea9c28e3-0b22-8002-8007-fb9ac7d53b91-317a3f44-3776-805e-8007-fb9784f09afd" class="strokes" style="fill: none; stroke-linecap: round; stroke-linejoin: round;"><g class="stroke-shape"><path d="M19.25,9.75L16.0833740234375,9.75C15.20880126953125,9.75,14.5,10.458877563476562,14.5,11.333343505859375L14.5,20.833343505859375C14.5,22.582229614257812,13.08221435546875,24,11.3333740234375,24L11.3333740234375,24C13.08221435546875,24,14.5,25.417770385742188,14.5,27.166656494140625L14.5,36.666656494140625C14.5,37.541107177734375,15.20880126953125,38.25,16.0833740234375,38.25L19.25,38.25" style="fill: none; stroke-width: 2; stroke: rgb(255, 255, 255); stroke-opacity: 1;"/></g></g></g></g></g></g></g></g></g></g></svg>